<svg xmlns="http://www.w3.org/2000/svg" viewBox="0 0 512 512">
  <rect width="512" height="512" rx="96" fill="#0a0a0a"/>
  <!-- Ripple rings -->
  <circle cx="256" cy="220" r="40" fill="none" stroke="#3b82f6" stroke-width="1.5" opacity="0.8"/>
  <circle cx="256" cy="220" r="72" fill="none" stroke="#3b82f6" stroke-width="1.2" opacity="0.4"/>
  <circle cx="256" cy="220" r="110" fill="none" stroke="#3b82f6" stroke-width="0.8" opacity="0.2"/>
  <circle cx="256" cy="220" r="155" fill="none" stroke="#3b82f6" stroke-width="0.6" opacity="0.1"/>
  <!-- Central dot -->
  <circle cx="256" cy="220" r="8" fill="#3b82f6"/>
  <!-- Cascade nodes emanating outward -->
  <circle cx="200" cy="310" r="6" fill="#60a5fa" opacity="0.7"/>
  <circle cx="312" cy="310" r="6" fill="#60a5fa" opacity="0.7"/>
  <circle cx="152" cy="380" r="5" fill="#93c5fd" opacity="0.5"/>
  <circle cx="248" cy="380" r="5" fill="#93c5fd" opacity="0.5"/>
  <circle cx="312" cy="390" r="5" fill="#93c5fd" opacity="0.5"/>
  <circle cx="380" cy="370" r="5" fill="#93c5fd" opacity="0.5"/>
  <!-- Cascade lines -->
  <line x1="248" y1="240" x2="205" y2="305" stroke="#3b82f6" stroke-width="1" opacity="0.35"/>
  <line x1="264" y1="240" x2="308" y2="305" stroke="#3b82f6" stroke-width="1" opacity="0.35"/>
  <line x1="196" y1="316" x2="156" y2="375" stroke="#60a5fa" stroke-width="0.8" opacity="0.25"/>
  <line x1="206" y1="316" x2="244" y2="375" stroke="#60a5fa" stroke-width="0.8" opacity="0.25"/>
  <line x1="308" y1="316" x2="308" y2="385" stroke="#60a5fa" stroke-width="0.8" opacity="0.25"/>
  <line x1="316" y1="316" x2="376" y2="365" stroke="#60a5fa" stroke-width="0.8" opacity="0.25"/>
</svg>
